<?xml version="1.0" encoding="UTF-8" standalone="no"?>
<!DOCTYPE svg PUBLIC "-//W3C//DTD SVG 1.1//EN" "http://www.w3.org/Graphics/SVG/1.1/DTD/svg11.dtd">
<svg xmlns="http://www.w3.org/2000/svg" xmlns:xlink="http://www.w3.org/1999/xlink" version="1.1" width="213.036pt" height="191.776pt" viewBox="0 0 213.036 191.776">
<g enable-background="new">
<path transform="matrix(1,0,0,-1,18.489998,18.490006)" stroke-width="1.99255" stroke-linecap="butt" stroke-miterlimit="10" stroke-linejoin="miter" fill="none" stroke="#0b61a4" d="M -14.17339 -14.17339 L 14.1734 -14.17339 L 14.1734 14.1734 L -14.17339 14.1734 Z "/>
<symbol id="font_0_4">
<path d="M .40200005 .157 L .49900005 .157 L .49900005 .2 L .40200005 .2 L .40200005 .629 C .40200005 .65400007 .40100003 .65800008 .37600003 .65800008 C .35800005 .65800008 .35600005 .65800008 .34400005 .643 L 0 .2 L 0 .157 L .28400005 .157 L .28400005 .043 L .17500001 .043 L .17500001 0 C .20400001 .002 .30300004 .002 .33900003 .002 C .37300004 .002 .47200004 .002 .49900005 0 L .49900005 .043 L .40200005 .043 L .40200005 .157 M .293 .518 L .293 .2 L .046000005 .2 L .293 .518 Z "/>
</symbol>
<use xlink:href="#font_0_4" transform="matrix(14.3462,0,0,-14.3462,14.899731,21.171006)" fill="#e66101"/>
<path transform="matrix(1,0,0,-1,194.54602,18.490006)" stroke-width="1.99255" stroke-linecap="butt" stroke-miterlimit="10" stroke-linejoin="miter" fill="none" stroke="#0b61a4" d="M -14.17339 -14.17339 L 14.1734 -14.17339 L 14.1734 14.1734 L -14.17339 14.1734 Z "/>
<symbol id="font_0_2">
<path d="M .449 .215 L .40700004 .215 C .404 .194 .397 .135 .38200004 .125 C .374 .11800001 .29600004 .11800001 .28100003 .11800001 L .12600002 .11800001 C .164 .15 .25500003 .22600001 .27 .23700002 C .381 .32000003 .449 .37100003 .449 .467 C .449 .58500006 .34200005 .656 .21000001 .656 C .09700001 .656 0 .592 0 .497 C 0 .44400005 .043000007 .42900003 .06600001 .42900003 C .09700001 .42900003 .13300002 .45000003 .13300002 .49600003 C .13300002 .53800007 .102000009 .559 .071 .563 C .11100001 .609 .164 .61300006 .185 .61300006 C .277 .61300006 .321 .53800007 .321 .46600003 C .321 .388 .268 .316 .22700003 .273 L .009999998 .046000005 C 0 .037 0 .035 0 .017 L 0 0 L .42000003 0 L .449 .215 Z "/>
</symbol>
<use xlink:href="#font_0_2" transform="matrix(14.3462,0,0,-14.3462,191.3144,21.171006)" fill="#b2abd2"/>
<path transform="matrix(1,0,0,-1,63.00202,55.915006)" stroke-width="1.99255" stroke-linecap="butt" stroke-miterlimit="10" stroke-linejoin="miter" fill="none" stroke="#0b61a4" d="M -14.17339 -14.17339 L 14.1734 -14.17339 L 14.1734 14.1734 L -14.17339 14.1734 Z "/>
<symbol id="font_0_1">
<path d="M .26000003 .62700006 C .26000003 .656 .25800003 .656 .22600001 .656 C .15200001 .592 .041 .592 .019000002 .592 L 0 .592 L 0 .549 L .019000002 .549 C .053999999 .549 .107 .555 .14700002 .568 L .14700002 .043 L .008000001 .043 L .008000001 0 C .050000006 .002 .155 .002 .20200002 .002 C .24900002 .002 .35500003 .002 .397 0 L .397 .043 L .26000003 .043 L .26000003 .62700006 Z "/>
</symbol>
<use xlink:href="#font_0_1" transform="matrix(14.3462,0,0,-14.3462,60.200796,58.59601)" fill="#5e3c99"/>
<path transform="matrix(1,0,0,-1,150.03403,55.915006)" stroke-width="1.99255" stroke-linecap="butt" stroke-miterlimit="10" stroke-linejoin="miter" fill="none" stroke="#0b61a4" d="M -14.17339 -14.17339 L 14.1734 -14.17339 L 14.1734 14.1734 L -14.17339 14.1734 Z "/>
<use xlink:href="#font_0_2" transform="matrix(14.3462,0,0,-14.3462,146.80242,58.59601)" fill="#b2abd2"/>
<path transform="matrix(1,0,0,-1,63.00202,135.86)" stroke-width="1.99255" stroke-linecap="butt" stroke-miterlimit="10" stroke-linejoin="miter" fill="none" stroke="#0b61a4" d="M -14.17339 -14.17339 L 14.1734 -14.17339 L 14.1734 14.1734 L -14.17339 14.1734 Z "/>
<symbol id="font_0_3">
<path d="M .214 .34300003 C .32600004 .34300003 .32600004 .23900001 .32600004 .191 C .32600004 .146 .32600004 .04 .21800001 .04 C .19700001 .04 .131 .043 .083000008 .07700001 C .126 .086 .141 .117000009 .141 .147 C .141 .18800001 .112 .21700001 .07100001 .21700001 C .029000003 .21700001 0 .18800001 0 .146 C 0 .054000006 .099999997 0 .223 0 C .38800005 0 .467 .091000009 .467 .191 C .467 .24000001 .44200004 .335 .28700004 .36200003 C .37500004 .389 .43600003 .451 .43600003 .53000006 C .43600003 .6050001 .36400003 .66800007 .22500001 .66800007 C .113000009 .66800007 .031 .609 .031 .52800008 C .031 .47800002 .07000001 .462 .096 .462 C .125 .462 .16000001 .481 .16000001 .52700009 C .16000001 .5500001 .15 .58400008 .103 .5910001 C .145 .632 .21300002 .632 .219 .632 C .30800004 .632 .30800004 .563 .30800004 .53300008 C .30800004 .503 .30400003 .45700003 .272 .416 C .246 .382 .22000002 .38000003 .18200001 .37800003 C .17 .377 .15 .37600003 .146 .374 C .14 .37100003 .14 .36400003 .14 .36 C .14 .34300003 .146 .34300003 .16600001 .34300003 L .214 .34300003 Z "/>
</symbol>
<use xlink:href="#font_0_3" transform="matrix(14.3462,0,0,-14.3462,59.641294,138.71315)" fill="#fdb863"/>
<path transform="matrix(1,0,0,-1,18.49002,173.286)" stroke-width="1.99255" stroke-linecap="butt" stroke-miterlimit="10" stroke-linejoin="miter" fill="none" stroke="#0b61a4" d="M -14.17339 -14.17339 L 14.1734 -14.17339 L 14.1734 14.1734 L -14.17339 14.1734 Z "/>
<use xlink:href="#font_0_3" transform="matrix(14.3462,0,0,-14.3462,15.1292929,176.13915)" fill="#fdb863"/>
<path transform="matrix(1,0,0,-1,106.518,95.888)" stroke-width=".3985" stroke-linecap="butt" stroke-miterlimit="10" stroke-linejoin="miter" fill="none" stroke="#000000" d="M -58.68614 42.66277 C -70.59161 44.62877 -78.2763 50.93602 -81.26332 58.87292 "/>
<path transform="matrix(-.35219,-.93587,-.93587,.35219,25.254677,37.01509)" d="M 3.58653 0 C 2.52383 .19925 .797 .797 -.3985 1.49438 L -.3985 -1.49438 C .797 -.797 2.52383 -.19925 3.58653 0 "/>
<path transform="matrix(1,0,0,-1,106.518,95.888)" stroke-width=".3985" stroke-linecap="butt" stroke-miterlimit="10" stroke-linejoin="miter" fill="none" stroke="#000000" d="M -72.85953 74.70943 C -60.95406 72.74342 -53.26936 66.43617 -50.28235 58.49927 "/>
<path transform="matrix(.35219,.93587,.93587,-.35219,56.23565,37.38872)" d="M 3.58653 0 C 2.52383 .19925 .797 .797 -.3985 1.49438 L -.3985 -1.49438 C .797 -.797 2.52383 -.19925 3.58653 0 "/>
<path transform="matrix(1,0,0,-1,106.518,95.888)" stroke-width=".3985" stroke-linecap="butt" stroke-miterlimit="10" stroke-linejoin="miter" fill="none" stroke="#000000" d="M -28.82849 55.14275 C .54192 83.88231 33.28513 92.27805 69.40565 82.17805 "/>
<path transform="matrix(.96301,.26926,.26926,-.96301,175.92365,13.709953)" d="M 3.58653 0 C 2.52383 .19925 .797 .797 -.3985 1.49438 L -.3985 -1.49438 C .797 -.797 2.52383 -.19925 3.58653 0 "/>
<path transform="matrix(1,0,0,-1,106.518,95.888)" stroke-width=".3985" stroke-linecap="butt" stroke-miterlimit="10" stroke-linejoin="miter" fill="none" stroke="#000000" d="M 72.85953 64.6416 L 61.43076 55.02898 "/>
<path transform="matrix(-.76526,.64368,.64368,.76526,167.94876,40.85902)" d="M 3.58653 0 C 2.52383 .19925 .797 .797 -.3985 1.49438 L -.3985 -1.49438 C .797 -.797 2.52383 -.19925 3.58653 0 "/>
<path transform="matrix(1,0,0,-1,106.518,95.888)" stroke-width=".3985" stroke-linecap="butt" stroke-miterlimit="10" stroke-linejoin="miter" fill="none" stroke="#000000" d="M 38.52434 24.8034 C 20.21727 -30.37741 -15.91803 -62.51242 -69.347 -73.52472 "/>
<path transform="matrix(-.97937,.20183,.20183,.97937,37.17102,169.41269)" d="M 3.58653 0 C 2.52383 .19925 .797 .797 -.3985 1.49438 L -.3985 -1.49438 C .797 -.797 2.52383 -.19925 3.58653 0 "/>
<path transform="matrix(1,0,0,-1,106.518,95.888)" stroke-width=".3985" stroke-linecap="butt" stroke-miterlimit="10" stroke-linejoin="miter" fill="none" stroke="#000000" d="M -58.68614 27.59634 C -86.9711 3.43604 -97.27083 -25.6538 -91.14366 -58.70323 "/>
<path transform="matrix(.18227,.98318,.98318,-.18227,15.374321,154.59122)" d="M 3.58653 0 C 2.52383 .19925 .797 .797 -.3985 1.49438 L -.3985 -1.49438 C .797 -.797 2.52383 -.19925 3.58653 0 "/>
<path transform="matrix(1,0,0,-1,106.518,95.888)" stroke-width=".3985" stroke-linecap="butt" stroke-miterlimit="10" stroke-linejoin="miter" fill="none" stroke="#000000" d="M -72.85953 -64.64162 L -61.43076 -55.02899 "/>
<path transform="matrix(.76526,-.64368,-.64368,-.76526,45.08724,150.91699)" d="M 3.58653 0 C 2.52383 .19925 .797 .797 -.3985 1.49438 L -.3985 -1.49438 C .797 -.797 2.52383 -.19925 3.58653 0 "/>
<path transform="matrix(1,0,0,-1,106.518,95.888)" stroke-width=".3985" stroke-linecap="butt" stroke-miterlimit="10" stroke-linejoin="miter" fill="none" stroke="#000000" d="M -28.34679 -36.82254 C 28.5947 -25.0864 64.73001 7.04861 81.90776 58.82547 "/>
<path transform="matrix(.31488,-.9491,-.9491,-.31488,188.42575,37.06255)" d="M 3.58653 0 C 2.52383 .19925 .797 .797 -.3985 1.49438 L -.3985 -1.49438 C .797 -.797 2.52383 -.19925 3.58653 0 "/>
<path transform="matrix(1,0,0,-1,106.518,95.888)" stroke-width=".3985" stroke-linecap="butt" stroke-miterlimit="10" stroke-linejoin="miter" fill="none" stroke="#000000" d="M -58.68614 -44.03563 C -83.18573 -50.60283 -83.18573 -29.34335 -63.11266 -34.72409 "/>
<path transform="matrix(.9659,.2589,.2589,-.9659,43.40534,130.61209)" d="M 3.58653 0 C 2.52383 .19925 .797 .797 -.3985 1.49438 L -.3985 -1.49438 C .797 -.797 2.52383 -.19925 3.58653 0 "/>
<path transform="matrix(1,0,0,-1,106.518,95.888)" stroke-width=".3985" stroke-linecap="butt" stroke-miterlimit="10" stroke-linejoin="miter" fill="none" stroke="#000000" d="M 39.45393 55.14275 C 32.88672 79.64235 54.1462 79.64235 48.76546 59.56927 "/>
<path transform="matrix(-.2589,.9659,.9659,.2589,155.28347,36.31873)" d="M 3.58653 0 C 2.52383 .19925 .797 .797 -.3985 1.49438 L -.3985 -1.49438 C .797 -.797 2.52383 -.19925 3.58653 0 "/>
<path transform="matrix(1,0,0,-1,106.518,95.888)" stroke-width=".3985" stroke-linecap="butt" stroke-miterlimit="10" stroke-linejoin="miter" fill="none" stroke="#000000" d="M -43.51646 -24.80342 L -43.51646 21.21686 "/>
<path transform="matrix(0,-1,-1,-0,63.001539,74.67114)" d="M 3.58653 0 C 2.52383 .19925 .797 .797 -.3985 1.49438 L -.3985 -1.49438 C .797 -.797 2.52383 -.19925 3.58653 0 "/>
<path transform="matrix(1,0,0,-1,106.518,95.888)" stroke-width=".3985" stroke-linecap="butt" stroke-miterlimit="10" stroke-linejoin="miter" fill="none" stroke="#000000" d="M 28.34679 39.97308 L -24.76024 39.97308 "/>
<path transform="matrix(-1,-0,0,1,81.75776,55.91492)" d="M 3.58653 0 C 2.52383 .19925 .797 .797 -.3985 1.49438 L -.3985 -1.49438 C .797 -.797 2.52383 -.19925 3.58653 0 "/>
<path transform="matrix(1,0,0,-1,106.518,95.888)" stroke-width=".3985" stroke-linecap="butt" stroke-miterlimit="10" stroke-linejoin="miter" fill="none" stroke="#000000" d="M -34.76363 24.8034 C -20.55846 .20929 -3.75267 17.01508 -25.24113 29.42645 "/>
<path transform="matrix(-.86592,-.50015,-.50015,.86592,81.27687,66.46156)" d="M 3.58653 0 C 2.52383 .19925 .797 .797 -.3985 1.49438 L -.3985 -1.49438 C .797 -.797 2.52383 -.19925 3.58653 0 "/>
</g>
</svg>
