<?xml version="1.0" encoding="UTF-8" standalone="no"?>
<!DOCTYPE svg PUBLIC "-//W3C//DTD SVG 1.1//EN" "http://www.w3.org/Graphics/SVG/1.1/DTD/svg11.dtd">
<svg xmlns="http://www.w3.org/2000/svg" xmlns:xlink="http://www.w3.org/1999/xlink" version="1.1" width="746.75558pt" height="495.31663pt" viewBox="0 0 746.75558 495.31663">
<g enable-background="new">
<symbol id="font_0_1">
<path d="M .106 .05299999 C .106 .082 .08200001 .10599999 .05300001 .10599999 C .024000004 .10599999 0 .082 0 .05299999 C 0 .024000004 .024000004 0 .05300001 0 C .08200001 0 .106 .024000004 .106 .05299999 Z "/>
</symbol>
<use xlink:href="#font_0_1" transform="matrix(27.673888,0,0,-27.673888,20.827176,83.870418)"/>
<use xlink:href="#font_0_1" transform="matrix(27.673888,0,0,-27.673888,33.142057,83.870418)"/>
<use xlink:href="#font_0_1" transform="matrix(27.673888,0,0,-27.673888,45.429265,83.870418)"/>
<path transform="matrix(2.7777777,0,0,-2.7777777,190.67777,81.87497)" stroke-width="1.99255" stroke-linecap="butt" stroke-miterlimit="10" stroke-linejoin="miter" fill="none" stroke="#0b61a4" d="M -14.17339 -14.17339 L 14.1734 -14.17339 L 14.1734 14.1734 L -14.17339 14.1734 Z "/>
<symbol id="font_1_1">
<path d="M .33900006 .38500003 C .311 .38400004 .291 .36200003 .291 .34000004 C .291 .32600004 .3 .31100003 .32200004 .31100003 C .34400005 .31100003 .36800004 .328 .36800004 .367 C .36800004 .41200004 .325 .45300005 .24900003 .45300005 C .11700001 .45300005 .08 .351 .08 .307 C .08 .22900002 .15400002 .21400002 .18300002 .20800002 C .235 .19800002 .287 .18700002 .287 .13200002 C .287 .106000009 .264 .022000002 .14400001 .022000002 C .13000001 .022000002 .053000004 .022000002 .030000002 .075 C .068 .07000001 .09300001 .1 .09300001 .128 C .09300001 .15100001 .07700001 .16300002 .056 .16300002 C .030000002 .16300002 0 .14200002 0 .097 C 0 .040000004 .057000005 0 .143 0 C .305 0 .34400005 .12100001 .34400005 .16600001 C .34400005 .20200002 .325 .22700002 .31300003 .23900002 C .286 .26700003 .25700004 .272 .21300002 .28100003 C .17700002 .28900004 .13700001 .29600004 .13700001 .34100003 C .13700001 .37000004 .16100002 .43100003 .24900003 .43100003 C .274 .43100003 .324 .42400003 .33900006 .38500003 Z "/>
</symbol>
<use xlink:href="#font_1_1" transform="matrix(27.673888,0,0,-27.673888,164.65847,89.62659)"/>
<symbol id="font_2_1">
<path d="M .23800002 .674 C .23900001 .676 .242 .689 .242 .69 C .242 .69500008 .23800002 .704 .22600003 .704 C .20600002 .704 .12300001 .69600006 .098000008 .694 C .09 .693 .076000008 .69200006 .076000008 .671 C .076000008 .657 .09 .657 .102 .657 C .15 .657 .15 .65000006 .15 .642 C .15 .635 .148 .629 .14600002 .62 L .0050000029 .054000006 C 0 .036000004 0 .034 0 .032 C 0 .017 .012000002 0 .034 0 C .061000006 0 .074 .020000002 .08 .042000005 C .082 .046000005 .125 .22200002 .12900001 .23600002 C .2 .22900002 .25700004 .20600002 .25700004 .15400002 C .25700004 .14900002 .25700004 .14400001 .255 .134 C .251 .119 .251 .114 .251 .103 C .251 .032 .30900003 0 .357 0 C .45400007 0 .48400004 .15200001 .48400004 .15300001 C .48400004 .16600001 .47100003 .16600001 .46800006 .16600001 C .45400007 .16600001 .453 .16100002 .448 .142 C .43600006 .099 .40900005 .028 .36 .028 C .333 .028 .325 .053000004 .325 .08 C .325 .097 .325 .099 .33100004 .125 C .33200003 .128 .33600004 .14500001 .33600004 .15600002 C .33600004 .24500002 .216 .259 .17400001 .262 C .20300003 .28 .24000003 .313 .25700004 .328 C .30800004 .37600003 .35800005 .423 .41400004 .423 C .42600007 .423 .439 .42000003 .44700004 .41 C .40400005 .403 .39500005 .36900003 .39500005 .354 C .39500005 .33200003 .412 .317 .43500007 .317 C .462 .317 .49200005 .33900003 .49200005 .381 C .49200005 .414 .46800006 .451 .41500003 .451 C .35800005 .451 .306 .41 .255 .363 C .21300002 .323 .18000002 .292 .13900002 .275 L .23800002 .674 Z "/>
</symbol>
<use xlink:href="#font_2_1" transform="matrix(19.371666,0,0,-19.371666,177.64453,93.66866)"/>
<symbol id="font_3_1">
<path d="M .63600006 0 C .65200009 0 .67600008 0 .67600008 .023999989 C .67600008 .048999996 .65300008 .048999996 .63600006 .048999996 L .04 .048999996 C .023999997 .048999996 0 .048999996 0 .025000006 C 0 0 .02300001 0 .04 0 L .63600006 0 Z "/>
</symbol>
<use xlink:href="#font_3_1" transform="matrix(19.371666,0,0,-19.371666,190.5171,89.09695)"/>
<symbol id="font_4_2">
<path d="M .22600001 .63600006 C .22600001 .66300007 .224 .66400006 .19600001 .66400006 C .132 .601 .041 .6 0 .6 L 0 .564 C .023999997 .564 .09000001 .564 .14500001 .592 L .14500001 .082 C .14500001 .049000004 .14500001 .036000004 .04500001 .036000004 L .0069999995 .036000004 L .0069999995 0 C .024999999 .001 .148 .004 .185 .004 C .21600002 .004 .34200005 .001 .36400003 0 L .36400003 .036000004 L .32600004 .036000004 C .22600001 .036000004 .22600001 .049000004 .22600001 .082 L .22600001 .63600006 Z "/>
</symbol>
<use xlink:href="#font_4_2" transform="matrix(19.371666,0,0,-19.371666,207.83094,93.474948)"/>
<path transform="matrix(2.7777777,0,0,-2.7777777,373.37779,81.87497)" stroke-width="1.99255" stroke-linecap="butt" stroke-miterlimit="10" stroke-linejoin="miter" fill="none" stroke="#0b61a4" d="M -14.17339 -14.17339 L 14.1734 -14.17339 L 14.1734 14.1734 L -14.17339 14.1734 Z "/>
<use xlink:href="#font_1_1" transform="matrix(27.673888,0,0,-27.673888,361.5224,89.62659)"/>
<use xlink:href="#font_2_1" transform="matrix(19.371666,0,0,-19.371666,374.50843,93.66866)"/>
<path transform="matrix(2.7777777,0,0,-2.7777777,556.07778,81.87497)" stroke-width="1.99255" stroke-linecap="butt" stroke-miterlimit="10" stroke-linejoin="miter" fill="none" stroke="#0b61a4" d="M -14.17339 -14.17339 L 14.1734 -14.17339 L 14.1734 14.1734 L -14.17339 14.1734 Z "/>
<use xlink:href="#font_1_1" transform="matrix(27.673888,0,0,-27.673888,530.21127,89.62659)"/>
<use xlink:href="#font_2_1" transform="matrix(19.371666,0,0,-19.371666,543.1973,93.66866)"/>
<symbol id="font_4_1">
<path d="M .39300005 .344 L .69900009 .344 C .7120001 .344 .73600009 .344 .73600009 .368 C .73600009 .393 .71300008 .393 .69900009 .393 L .39300005 .393 L .39300005 .70000007 C .39300005 .71300008 .39300005 .73700007 .36900003 .73700007 C .34400005 .73700007 .34400005 .71400007 .34400005 .70000007 L .34400005 .393 L .037000009 .393 C .024000004 .393 0 .393 0 .36900003 C 0 .344 .023000002 .344 .037000009 .344 L .34400005 .344 L .34400005 .037000009 C .34400005 .024000004 .34400005 0 .36800004 0 C .39300005 0 .39300005 .023000002 .39300005 .037000009 L .39300005 .344 Z "/>
</symbol>
<use xlink:href="#font_4_1" transform="matrix(19.371666,0,0,-19.371666,555.3338,95.7608)"/>
<use xlink:href="#font_4_2" transform="matrix(19.371666,0,0,-19.371666,573.07827,93.474948)"/>
<use xlink:href="#font_0_1" transform="matrix(27.673888,0,0,-27.673888,698.4021,83.870418)"/>
<use xlink:href="#font_0_1" transform="matrix(27.673888,0,0,-27.673888,710.71707,83.870418)"/>
<use xlink:href="#font_0_1" transform="matrix(27.673888,0,0,-27.673888,723.0042,83.870418)"/>
<use xlink:href="#font_0_1" transform="matrix(27.673888,0,0,-27.673888,20.827187,256.72877)"/>
<use xlink:href="#font_0_1" transform="matrix(27.673888,0,0,-27.673888,33.142068,256.72877)"/>
<use xlink:href="#font_0_1" transform="matrix(27.673888,0,0,-27.673888,45.42927,256.72877)"/>
<path transform="matrix(2.7777777,0,0,-2.7777777,190.67778,254.7333)" stroke-width="1.99255" stroke-linecap="butt" stroke-miterlimit="10" stroke-linejoin="miter" fill="none" stroke="#0b61a4" d="M 17.71674 0 C 17.71674 9.7848 9.7848 17.71674 0 17.71674 C -9.7848 17.71674 -17.71674 9.7848 -17.71674 0 C -17.71674 -9.7848 -9.7848 -17.71674 0 -17.71674 C 9.7848 -17.71674 17.71674 -9.7848 17.71674 0 Z M 0 0 "/>
<symbol id="font_5_1">
<path d="M .324 .246 L .441 .37600003 C .454 .39000003 .46 .397 .543 .397 L .543 .44400005 C .508 .44200004 .456 .441 .451 .441 C .426 .441 .37600003 .44300003 .348 .44400005 L .348 .397 C .362 .397 .374 .395 .386 .388 C .382 .38200004 .382 .38000003 .378 .37600003 L .294 .282 L .19600001 .397 L .23600002 .397 L .23600002 .44400005 C .21000001 .44300003 .14700002 .441 .11500001 .441 C .083000008 .441 .038000004 .44300003 .004999999 .44400005 L .004999999 .397 L .076000008 .397 L .23200001 .21300002 L .101 .066 C .08400001 .047000003 .048 .047000003 0 .047000003 L 0 0 C .035000005 .002 .087000008 .003 .09200001 .003 C .11700001 .003 .17500001 .001 .19500001 0 L .19500001 .047000003 C .17700002 .047000003 .158 .052 .158 .058000003 C .158 .059000005 .158 .060000004 .165 .068 L .262 .177 L .372 .047000003 L .333 .047000003 L .333 0 C .359 .001 .42000003 .003 .453 .003 C .485 .003 .53000006 .001 .563 0 L .563 .047000003 L .49199999 .047000003 L .324 .246 Z "/>
</symbol>
<use xlink:href="#font_5_1" transform="matrix(27.673888,0,0,-27.673888,161.91716,262.1805)"/>
<use xlink:href="#font_2_1" transform="matrix(19.371666,0,0,-19.371666,179.55567,266.52424)"/>
<use xlink:href="#font_3_1" transform="matrix(19.371666,0,0,-19.371666,192.42824,261.9525)"/>
<use xlink:href="#font_4_2" transform="matrix(19.371666,0,0,-19.371666,209.74483,266.3305)"/>
<path transform="matrix(2.7777777,0,0,-2.7777777,373.3778,254.7333)" stroke-width="1.99255" stroke-linecap="butt" stroke-miterlimit="10" stroke-linejoin="miter" fill="none" stroke="#0b61a4" d="M 17.71674 0 C 17.71674 9.7848 9.7848 17.71674 0 17.71674 C -9.7848 17.71674 -17.71674 9.7848 -17.71674 0 C -17.71674 -9.7848 -9.7848 -17.71674 0 -17.71674 C 9.7848 -17.71674 17.71674 -9.7848 17.71674 0 Z M 0 0 "/>
<use xlink:href="#font_5_1" transform="matrix(27.673888,0,0,-27.673888,358.78108,262.1805)"/>
<use xlink:href="#font_2_1" transform="matrix(19.371666,0,0,-19.371666,376.4196,266.52424)"/>
<path transform="matrix(2.7777777,0,0,-2.7777777,556.0778,254.7333)" stroke-width="1.99255" stroke-linecap="butt" stroke-miterlimit="10" stroke-linejoin="miter" fill="none" stroke="#0b61a4" d="M 17.71674 0 C 17.71674 9.7848 9.7848 17.71674 0 17.71674 C -9.7848 17.71674 -17.71674 9.7848 -17.71674 0 C -17.71674 -9.7848 -9.7848 -17.71674 0 -17.71674 C 9.7848 -17.71674 17.71674 -9.7848 17.71674 0 Z M 0 0 "/>
<use xlink:href="#font_5_1" transform="matrix(27.673888,0,0,-27.673888,527.47,262.1805)"/>
<use xlink:href="#font_2_1" transform="matrix(19.371666,0,0,-19.371666,545.11129,266.52424)"/>
<use xlink:href="#font_4_1" transform="matrix(19.371666,0,0,-19.371666,557.24496,268.61637)"/>
<use xlink:href="#font_4_2" transform="matrix(19.371666,0,0,-19.371666,574.9894,266.3305)"/>
<use xlink:href="#font_0_1" transform="matrix(27.673888,0,0,-27.673888,698.40219,256.72877)"/>
<use xlink:href="#font_0_1" transform="matrix(27.673888,0,0,-27.673888,710.7171,256.72877)"/>
<use xlink:href="#font_0_1" transform="matrix(27.673888,0,0,-27.673888,723.0043,256.72877)"/>
<use xlink:href="#font_0_1" transform="matrix(27.673888,0,0,-27.673888,20.82727,437.76765)"/>
<use xlink:href="#font_0_1" transform="matrix(27.673888,0,0,-27.673888,33.14215,437.76765)"/>
<use xlink:href="#font_0_1" transform="matrix(27.673888,0,0,-27.673888,45.42936,437.76765)"/>
<path transform="matrix(2.7777777,0,0,-2.7777777,190.67787,435.7722)" d="M 17.71674 0 C 17.71674 9.7848 9.7848 17.71674 0 17.71674 C -9.7848 17.71674 -17.71674 9.7848 -17.71674 0 C -17.71674 -9.7848 -9.7848 -17.71674 0 -17.71674 C 9.7848 -17.71674 17.71674 -9.7848 17.71674 0 Z M 0 0 " fill="#ff9200"/>
<path transform="matrix(2.7777777,0,0,-2.7777777,190.67787,435.7722)" stroke-width=".79701" stroke-linecap="butt" stroke-miterlimit="10" stroke-linejoin="miter" fill="none" stroke="#ff9200" d="M 17.71674 0 C 17.71674 9.7848 9.7848 17.71674 0 17.71674 C -9.7848 17.71674 -17.71674 9.7848 -17.71674 0 C -17.71674 -9.7848 -9.7848 -17.71674 0 -17.71674 C 9.7848 -17.71674 17.71674 -9.7848 17.71674 0 Z M 0 0 "/>
<symbol id="font_5_2">
<path d="M .48400004 .57600006 C .491 .59000006 .49400003 .597 .558 .597 L .558 .64400008 C .53400006 .642 .504 .64100006 .47900004 .64100006 C .454 .64100006 .409 .643 .388 .64400008 L .388 .597 C .39000003 .597 .435 .597 .435 .58500006 C .435 .584 .431 .574 .43 .573 L .315 .32700003 L .18800001 .597 L .242 .597 L .242 .64400008 C .209 .642 .119 .64100006 .118 .64100006 C .09 .64100006 .045 .643 .003999999 .64400008 L .003999999 .597 L .068 .597 L .255 .2 L .23200001 .15200001 C .21000001 .104 .178 .036 .10700001 .036 C .093 .036 .091000009 .037 .083000008 .03999999 C .09200001 .044 .11500001 .058 .11500001 .092999998 C .11500001 .126 .091000009 .15 .057000005 .15 C .029000001 .15 0 .131 0 .092 C 0 .040999995 .047000007 0 .10700001 0 C .18400002 0 .242 .06199999 .269 .119 L .48400004 .57600006 Z "/>
</symbol>
<use xlink:href="#font_5_2" transform="matrix(27.673888,0,0,-27.673888,161.91725,448.75419)"/>
<use xlink:href="#font_2_1" transform="matrix(19.371666,0,0,-19.371666,179.55576,447.56593)"/>
<use xlink:href="#font_3_1" transform="matrix(19.371666,0,0,-19.371666,192.42833,442.9942)"/>
<use xlink:href="#font_4_2" transform="matrix(19.371666,0,0,-19.371666,209.74492,447.3722)"/>
<path transform="matrix(2.7777777,0,0,-2.7777777,373.3779,435.7722)" d="M 17.71674 0 C 17.71674 9.7848 9.7848 17.71674 0 17.71674 C -9.7848 17.71674 -17.71674 9.7848 -17.71674 0 C -17.71674 -9.7848 -9.7848 -17.71674 0 -17.71674 C 9.7848 -17.71674 17.71674 -9.7848 17.71674 0 Z M 0 0 " fill="#ff9200"/>
<path transform="matrix(2.7777777,0,0,-2.7777777,373.3779,435.7722)" stroke-width=".79701" stroke-linecap="butt" stroke-miterlimit="10" stroke-linejoin="miter" fill="none" stroke="#ff9200" d="M 17.71674 0 C 17.71674 9.7848 9.7848 17.71674 0 17.71674 C -9.7848 17.71674 -17.71674 9.7848 -17.71674 0 C -17.71674 -9.7848 -9.7848 -17.71674 0 -17.71674 C 9.7848 -17.71674 17.71674 -9.7848 17.71674 0 Z M 0 0 "/>
<use xlink:href="#font_5_2" transform="matrix(27.673888,0,0,-27.673888,358.78117,448.75419)"/>
<use xlink:href="#font_2_1" transform="matrix(19.371666,0,0,-19.371666,376.41969,447.56593)"/>
<path transform="matrix(2.7777777,0,0,-2.7777777,556.0779,435.7722)" d="M 17.71674 0 C 17.71674 9.7848 9.7848 17.71674 0 17.71674 C -9.7848 17.71674 -17.71674 9.7848 -17.71674 0 C -17.71674 -9.7848 -9.7848 -17.71674 0 -17.71674 C 9.7848 -17.71674 17.71674 -9.7848 17.71674 0 Z M 0 0 " fill="#ff9200"/>
<path transform="matrix(2.7777777,0,0,-2.7777777,556.0779,435.7722)" stroke-width=".79701" stroke-linecap="butt" stroke-miterlimit="10" stroke-linejoin="miter" fill="none" stroke="#ff9200" d="M 17.71674 0 C 17.71674 9.7848 9.7848 17.71674 0 17.71674 C -9.7848 17.71674 -17.71674 9.7848 -17.71674 0 C -17.71674 -9.7848 -9.7848 -17.71674 0 -17.71674 C 9.7848 -17.71674 17.71674 -9.7848 17.71674 0 Z M 0 0 "/>
<use xlink:href="#font_5_2" transform="matrix(27.673888,0,0,-27.673888,527.47006,448.75419)"/>
<use xlink:href="#font_2_1" transform="matrix(19.371666,0,0,-19.371666,545.1113,447.56593)"/>
<use xlink:href="#font_4_1" transform="matrix(19.371666,0,0,-19.371666,557.2478,449.65806)"/>
<use xlink:href="#font_4_2" transform="matrix(19.371666,0,0,-19.371666,574.99227,447.3722)"/>
<use xlink:href="#font_0_1" transform="matrix(27.673888,0,0,-27.673888,698.4023,437.76765)"/>
<use xlink:href="#font_0_1" transform="matrix(27.673888,0,0,-27.673888,710.7172,437.76765)"/>
<use xlink:href="#font_0_1" transform="matrix(27.673888,0,0,-27.673888,723.0044,437.76765)"/>
<path transform="matrix(2.7777777,0,0,-2.7777777,373.37779,262.91664)" stroke-width="1.99255" stroke-linecap="butt" stroke-miterlimit="10" stroke-linejoin="miter" fill="none" stroke="#000000" d="M -112.6231 65.16737 L -88.18471 65.16737 "/>
<path transform="matrix(2.7777777,0,0,-2.7777777,115.34902,81.896167)" d="M 9.11794 0 L 3.21756 2.2453 L 5.20377 0 L 3.21756 -2.2453 Z "/>
<path transform="matrix(2.7777777,0,0,-2.7777777,115.34902,81.896167)" stroke-width="1.99255" stroke-linecap="butt" stroke-miterlimit="10" stroke-linejoin="miter" fill="none" stroke="#000000" d="M 9.11794 0 L 3.21756 2.2453 L 5.20377 0 L 3.21756 -2.2453 Z "/>
<path transform="matrix(2.7777777,0,0,-2.7777777,373.37779,262.91664)" stroke-width="1.99255" stroke-linecap="butt" stroke-miterlimit="10" stroke-linejoin="miter" fill="none" stroke="#000000" d="M -112.6231 70.55359 C -80.26157 90.75916 -48.84744 91.84532 -21.568 77.3282 "/>
<path transform="matrix(2.452139,1.3049166,1.3049166,-2.452139,301.92784,41.97557)" d="M 9.11794 0 L 3.21756 2.2453 L 5.20377 0 L 3.21756 -2.2453 Z "/>
<path transform="matrix(2.452139,1.3049166,1.3049166,-2.452139,301.92784,41.97557)" stroke-width="1.99255" stroke-linecap="butt" stroke-miterlimit="10" stroke-linejoin="miter" fill="none" stroke="#000000" d="M 9.11794 0 L 3.21756 2.2453 L 5.20377 0 L 3.21756 -2.2453 Z "/>
<path transform="matrix(2.7777777,0,0,-2.7777777,373.37779,262.91664)" stroke-width="1.99255" stroke-linecap="butt" stroke-miterlimit="10" stroke-linejoin="miter" fill="none" stroke="#000000" d="M -50.5984 65.16692 L -22.41791 65.16768 "/>
<path transform="matrix(2.7777777,0,0,-2.7777777,298.03459,81.89532)" d="M 9.11794 0 L 3.21756 2.2453 L 5.20377 0 L 3.21756 -2.2453 Z "/>
<path transform="matrix(2.7777777,0,0,-2.7777777,298.03459,81.89532)" stroke-width="1.99255" stroke-linecap="butt" stroke-miterlimit="10" stroke-linejoin="miter" fill="none" stroke="#000000" d="M 9.11794 0 L 3.21756 2.2453 L 5.20377 0 L 3.21756 -2.2453 Z "/>
<path transform="matrix(2.7777777,0,0,-2.7777777,373.37779,262.91664)" stroke-width="1.99255" stroke-linecap="butt" stroke-miterlimit="10" stroke-linejoin="miter" fill="none" stroke="#000000" d="M -50.5984 73.92265 C -16.42194 93.65436 16.42194 93.65436 44.3201 77.54738 "/>
<path transform="matrix(2.4055835,1.3888333,1.3888333,-2.4055835,485.16929,40.97184)" d="M 9.11794 0 L 3.21756 2.2453 L 5.20377 0 L 3.21756 -2.2453 Z "/>
<path transform="matrix(2.4055835,1.3888333,1.3888333,-2.4055835,485.16929,40.97184)" stroke-width="1.99255" stroke-linecap="butt" stroke-miterlimit="10" stroke-linejoin="miter" fill="none" stroke="#000000" d="M 9.11794 0 L 3.21756 2.2453 L 5.20377 0 L 3.21756 -2.2453 Z "/>
<path transform="matrix(2.7777777,0,0,-2.7777777,373.37779,262.91664)" stroke-width="1.99255" stroke-linecap="butt" stroke-miterlimit="10" stroke-linejoin="miter" fill="none" stroke="#000000" d="M 15.16823 65.16692 L 43.34872 65.16768 "/>
<path transform="matrix(2.7777777,0,0,-2.7777777,480.71968,81.89532)" d="M 9.11794 0 L 3.21756 2.2453 L 5.20377 0 L 3.21756 -2.2453 Z "/>
<path transform="matrix(2.7777777,0,0,-2.7777777,480.71968,81.89532)" stroke-width="1.99255" stroke-linecap="butt" stroke-miterlimit="10" stroke-linejoin="miter" fill="none" stroke="#000000" d="M 9.11794 0 L 3.21756 2.2453 L 5.20377 0 L 3.21756 -2.2453 Z "/>
<path transform="matrix(2.7777777,0,0,-2.7777777,373.37779,262.91664)" stroke-width="1.99255" stroke-linecap="butt" stroke-miterlimit="10" stroke-linejoin="miter" fill="none" stroke="#000000" d="M 15.16823 73.9225 C 48.84744 91.84532 80.26157 90.75916 106.47365 74.39304 "/>
<path transform="matrix(2.3562222,1.4711112,1.4711112,-2.3562222,658.0504,49.346796)" d="M 9.11794 0 L 3.21756 2.2453 L 5.20377 0 L 3.21756 -2.2453 Z "/>
<path transform="matrix(2.3562222,1.4711112,1.4711112,-2.3562222,658.0504,49.346796)" stroke-width="1.99255" stroke-linecap="butt" stroke-miterlimit="10" stroke-linejoin="miter" fill="none" stroke="#000000" d="M 9.11794 0 L 3.21756 2.2453 L 5.20377 0 L 3.21756 -2.2453 Z "/>
<path transform="matrix(2.7777777,0,0,-2.7777777,373.37779,262.91664)" stroke-width="1.99255" stroke-linecap="butt" stroke-miterlimit="10" stroke-linejoin="miter" fill="none" stroke="#000000" d="M 80.93503 65.16692 L 105.37352 65.16788 "/>
<path transform="matrix(2.7777222,-.000055555554,-.000055555554,-2.7777222,653.011,81.89497)" d="M 9.11794 0 L 3.21756 2.2453 L 5.20377 0 L 3.21756 -2.2453 Z "/>
<path transform="matrix(2.7777222,-.000055555554,-.000055555554,-2.7777222,653.011,81.89497)" stroke-width="1.99255" stroke-linecap="butt" stroke-miterlimit="10" stroke-linejoin="miter" fill="none" stroke="#000000" d="M 9.11794 0 L 3.21756 2.2453 L 5.20377 0 L 3.21756 -2.2453 Z "/>
<path transform="matrix(2.7777777,0,0,-2.7777777,373.37779,262.91664)" stroke-width="1.99255" stroke-linecap="butt" stroke-miterlimit="10" stroke-linejoin="miter" fill="none" stroke="#000000" d="M -112.6231 2.94522 L -91.72783 2.94522 "/>
<path transform="matrix(2.7777777,0,0,-2.7777777,105.50702,254.73548)" d="M 9.11794 0 L 3.21756 2.2453 L 5.20377 0 L 3.21756 -2.2453 Z "/>
<path transform="matrix(2.7777777,0,0,-2.7777777,105.50702,254.73548)" stroke-width="1.99255" stroke-linecap="butt" stroke-miterlimit="10" stroke-linejoin="miter" fill="none" stroke="#000000" d="M 9.11794 0 L 3.21756 2.2453 L 5.20377 0 L 3.21756 -2.2453 Z "/>
<path transform="matrix(2.7777777,0,0,-2.7777777,373.37779,262.91664)" stroke-width="1.99255" stroke-linecap="butt" stroke-miterlimit="10" stroke-linejoin="miter" fill="none" stroke="#000000" d="M -47.05544 2.94522 L -25.96088 2.94522 "/>
<path transform="matrix(2.7777777,0,0,-2.7777777,288.193,254.73548)" d="M 9.11794 0 L 3.21756 2.2453 L 5.20377 0 L 3.21756 -2.2453 Z "/>
<path transform="matrix(2.7777777,0,0,-2.7777777,288.193,254.73548)" stroke-width="1.99255" stroke-linecap="butt" stroke-miterlimit="10" stroke-linejoin="miter" fill="none" stroke="#000000" d="M 9.11794 0 L 3.21756 2.2453 L 5.20377 0 L 3.21756 -2.2453 Z "/>
<path transform="matrix(2.7777777,0,0,-2.7777777,373.37779,262.91664)" stroke-width="1.99255" stroke-linecap="butt" stroke-miterlimit="10" stroke-linejoin="miter" fill="none" stroke="#000000" d="M 18.7112 2.94522 L 39.80576 2.94522 "/>
<path transform="matrix(2.7777777,0,0,-2.7777777,470.87809,254.73548)" d="M 9.11794 0 L 3.21756 2.2453 L 5.20377 0 L 3.21756 -2.2453 Z "/>
<path transform="matrix(2.7777777,0,0,-2.7777777,470.87809,254.73548)" stroke-width="1.99255" stroke-linecap="butt" stroke-miterlimit="10" stroke-linejoin="miter" fill="none" stroke="#000000" d="M 9.11794 0 L 3.21756 2.2453 L 5.20377 0 L 3.21756 -2.2453 Z "/>
<path transform="matrix(2.7777777,0,0,-2.7777777,373.37779,262.91664)" stroke-width="1.99255" stroke-linecap="butt" stroke-miterlimit="10" stroke-linejoin="miter" fill="none" stroke="#000000" d="M 84.47815 2.94522 L 105.3734 2.94522 "/>
<path transform="matrix(2.7777777,0,0,-2.7777777,653.01046,254.73548)" d="M 9.11794 0 L 3.21756 2.2453 L 5.20377 0 L 3.21756 -2.2453 Z "/>
<path transform="matrix(2.7777777,0,0,-2.7777777,653.01046,254.73548)" stroke-width="1.99255" stroke-linecap="butt" stroke-miterlimit="10" stroke-linejoin="miter" fill="none" stroke="#000000" d="M 9.11794 0 L 3.21756 2.2453 L 5.20377 0 L 3.21756 -2.2453 Z "/>
<path transform="matrix(2.7777777,0,0,-2.7777777,373.37779,262.91664)" stroke-width="1.99255" stroke-linecap="butt" stroke-miterlimit="10" stroke-linejoin="miter" fill="none" stroke="#000000" d="M -65.7642 50.00082 L -65.76517 28.90584 "/>
<path transform="matrix(-.000055555554,2.7777222,2.7777222,.000055555554,190.69696,169.55159)" d="M 9.11794 0 L 3.21756 2.2453 L 5.20377 0 L 3.21756 -2.2453 Z "/>
<path transform="matrix(-.000055555554,2.7777222,2.7777222,.000055555554,190.69696,169.55159)" stroke-width="1.99255" stroke-linecap="butt" stroke-miterlimit="10" stroke-linejoin="miter" fill="none" stroke="#000000" d="M 9.11794 0 L 3.21756 2.2453 L 5.20377 0 L 3.21756 -2.2453 Z "/>
<path transform="matrix(2.7777777,0,0,-2.7777777,373.37779,262.91664)" stroke-width="1.99255" stroke-linecap="butt" stroke-miterlimit="10" stroke-linejoin="miter" fill="none" stroke="#000000" d="M 0 50.00082 L 0 28.90627 "/>
<path transform="matrix(0,2.7777777,2.7777777,0,373.37779,169.55022)" d="M 9.11794 0 L 3.21756 2.2453 L 5.20377 0 L 3.21756 -2.2453 Z "/>
<path transform="matrix(0,2.7777777,2.7777777,0,373.37779,169.55022)" stroke-width="1.99255" stroke-linecap="butt" stroke-miterlimit="10" stroke-linejoin="miter" fill="none" stroke="#000000" d="M 9.11794 0 L 3.21756 2.2453 L 5.20377 0 L 3.21756 -2.2453 Z "/>
<path transform="matrix(2.7777777,0,0,-2.7777777,373.37779,262.91664)" stroke-width="1.99255" stroke-linecap="butt" stroke-miterlimit="10" stroke-linejoin="miter" fill="none" stroke="#000000" d="M 65.7642 50.00082 L 65.76517 28.90584 "/>
<path transform="matrix(.000055555554,2.7777222,2.7777222,-.000055555554,556.0586,169.55159)" d="M 9.11794 0 L 3.21756 2.2453 L 5.20377 0 L 3.21756 -2.2453 Z "/>
<path transform="matrix(.000055555554,2.7777222,2.7777222,-.000055555554,556.0586,169.55159)" stroke-width="1.99255" stroke-linecap="butt" stroke-miterlimit="10" stroke-linejoin="miter" fill="none" stroke="#000000" d="M 9.11794 0 L 3.21756 2.2453 L 5.20377 0 L 3.21756 -2.2453 Z "/>
<path transform="matrix(2.7777777,0,0,-2.7777777,373.37779,262.91664)" stroke-width="1.99255" stroke-linecap="butt" stroke-miterlimit="10" stroke-linejoin="miter" fill="none" stroke="#000000" d="M -65.7642 -15.76566 L -65.7651 -36.8608 "/>
<path transform="matrix(-.00013888888,2.7777222,2.7777222,.00013888888,190.69756,352.23667)" d="M 9.11794 0 L 3.21756 2.2453 L 5.20377 0 L 3.21756 -2.2453 Z "/>
<path transform="matrix(-.00013888888,2.7777222,2.7777222,.00013888888,190.69756,352.23667)" stroke-width="1.99255" stroke-linecap="butt" stroke-miterlimit="10" stroke-linejoin="miter" fill="none" stroke="#000000" d="M 9.11794 0 L 3.21756 2.2453 L 5.20377 0 L 3.21756 -2.2453 Z "/>
<path transform="matrix(2.7777777,0,0,-2.7777777,373.37779,262.91664)" stroke-width="1.99255" stroke-linecap="butt" stroke-miterlimit="10" stroke-linejoin="miter" fill="none" stroke="#000000" d="M 0 -15.76596 L 0 -36.86052 "/>
<path transform="matrix(0,2.7777777,2.7777777,0,373.37779,352.23576)" d="M 9.11794 0 L 3.21756 2.2453 L 5.20377 0 L 3.21756 -2.2453 Z "/>
<path transform="matrix(0,2.7777777,2.7777777,0,373.37779,352.23576)" stroke-width="1.99255" stroke-linecap="butt" stroke-miterlimit="10" stroke-linejoin="miter" fill="none" stroke="#000000" d="M 9.11794 0 L 3.21756 2.2453 L 5.20377 0 L 3.21756 -2.2453 Z "/>
<path transform="matrix(2.7777777,0,0,-2.7777777,373.37779,262.91664)" stroke-width="1.99255" stroke-linecap="butt" stroke-miterlimit="10" stroke-linejoin="miter" fill="none" stroke="#000000" d="M 65.7642 -15.76566 L 65.7651 -36.8608 "/>
<path transform="matrix(.00013888888,2.7777222,2.7777222,-.00013888888,556.058,352.23667)" d="M 9.11794 0 L 3.21756 2.2453 L 5.20377 0 L 3.21756 -2.2453 Z "/>
<path transform="matrix(.00013888888,2.7777222,2.7777222,-.00013888888,556.058,352.23667)" stroke-width="1.99255" stroke-linecap="butt" stroke-miterlimit="10" stroke-linejoin="miter" fill="none" stroke="#000000" d="M 9.11794 0 L 3.21756 2.2453 L 5.20377 0 L 3.21756 -2.2453 Z "/>
<path transform="matrix(2.7777777,0,0,-2.7777777,373.37779,262.91664)" stroke-width="1.99255" stroke-linecap="butt" stroke-miterlimit="10" stroke-linejoin="miter" fill="none" stroke="#000000" d="M -50.5984 50.82082 L -18.85684 20.78693 "/>
<path transform="matrix(2.0175832,1.9090833,1.9090833,-2.0175832,311.50355,196.19174)" d="M 9.11794 0 L 3.21756 2.2453 L 5.20377 0 L 3.21756 -2.2453 Z "/>
<path transform="matrix(2.0175832,1.9090833,1.9090833,-2.0175832,311.50355,196.19174)" stroke-width="1.99255" stroke-linecap="butt" stroke-miterlimit="10" stroke-linejoin="miter" fill="none" stroke="#000000" d="M 9.11794 0 L 3.21756 2.2453 L 5.20377 0 L 3.21756 -2.2453 Z "/>
<path transform="matrix(2.7777777,0,0,-2.7777777,373.37779,262.91664)" stroke-width="1.99255" stroke-linecap="butt" stroke-miterlimit="10" stroke-linejoin="miter" fill="none" stroke="#000000" d="M 15.16823 50.82051 L 46.90933 20.78601 "/>
<path transform="matrix(2.0175832,1.9090833,1.9090833,-2.0175832,494.18736,196.19425)" d="M 9.11794 0 L 3.21756 2.2453 L 5.20377 0 L 3.21756 -2.2453 Z "/>
<path transform="matrix(2.0175832,1.9090833,1.9090833,-2.0175832,494.18736,196.19425)" stroke-width="1.99255" stroke-linecap="butt" stroke-miterlimit="10" stroke-linejoin="miter" fill="none" stroke="#000000" d="M 9.11794 0 L 3.21756 2.2453 L 5.20377 0 L 3.21756 -2.2453 Z "/>
<path transform="matrix(2.7777777,0,0,-2.7777777,373.37779,262.91664)" stroke-width="1.99255" stroke-linecap="butt" stroke-miterlimit="10" stroke-linejoin="miter" fill="none" stroke="#000000" d="M 79.45982 50.00082 L 110.52861 15.59776 "/>
<path transform="matrix(1.8616943,2.0614167,2.0614167,-1.8616943,671.6411,209.8892)" d="M 9.11794 0 L 3.21756 2.2453 L 5.20377 0 L 3.21756 -2.2453 Z "/>
<path transform="matrix(1.8616943,2.0614167,2.0614167,-1.8616943,671.6411,209.8892)" stroke-width="1.99255" stroke-linecap="butt" stroke-miterlimit="10" stroke-linejoin="miter" fill="none" stroke="#000000" d="M 9.11794 0 L 3.21756 2.2453 L 5.20377 0 L 3.21756 -2.2453 Z "/>
</g>
</svg>
